<?xml version="1.0" encoding="utf-8"?>
<!-- Svg Vector Icons : http://www.onlinewebfonts.com/icon -->
<!DOCTYPE svg PUBLIC "-//W3C//DTD SVG 1.1//EN" "http://www.w3.org/Graphics/SVG/1.1/DTD/svg11.dtd">
<svg version="1.1" xmlns="http://www.w3.org/2000/svg" xmlns:xlink="http://www.w3.org/1999/xlink" x="0px" y="0px" viewBox="0 0 256 256" enable-background="new 0 0 256 256" xml:space="preserve">
<metadata> Svg Vector Icons : http://www.onlinewebfonts.com/icon </metadata>
<g><g><g><path fill="#000000" d="M125.1,10.8c-0.4,0.5-1.1,1.6-1.5,2.4c-2,4-49.7,132.3-49.9,134.3c-0.5,4.7,2.4,8.6,7.1,9.7c1.7,0.3,10.4,0.5,24.9,0.5h22.4l0.1,43.6c0.1,45.9,0.1,45.6,2.2,44.3c0.4-0.3,1.3-1.4,1.9-2.4c0.5-1,12-31.3,25.5-67.2c22.8-60.9,24.5-65.5,24.5-68.6c0-2.8-0.1-3.4-1.3-5c-0.8-1-2.3-2.3-3.4-2.9c-2-1.1-2.3-1.1-25.8-1.2l-23.8-0.1V55.6c0-29.6-0.1-43.1-0.5-44.1C127,9.8,126.2,9.6,125.1,10.8z"/></g></g></g>
</svg>