<svg version="1.1" xmlns="http://www.w3.org/2000/svg" xmlns:xlink="http://www.w3.org/1999/xlink" width="1024px" height="1024px" viewBox="0,0,256,256"><g fill="#09ce20" fill-rule="nonzero" stroke="none" stroke-width="1" stroke-linecap="butt" stroke-linejoin="miter" stroke-miterlimit="10" stroke-dasharray="" stroke-dashoffset="0" font-family="none" font-weight="none" font-size="none" text-anchor="none" style="mix-blend-mode: normal"><g transform="translate(0.22189,-0.21928) scale(0.25,0.25)"><path d="M582.24,663.14297c-56.714,0 -113.42699,-21.59 -156.60999,-64.773c-11.729,-11.727 -11.729,-30.793 0,-42.521c11.729,-11.727 30.792,-11.727 42.521,0c62.911,62.91 165.21299,62.91 228.12199,0l218.67699,-218.67899c62.911,-62.91 62.911,-165.21199 0,-228.12199c-62.908,-62.91 -165.21099,-62.91 -228.11999,0l-184.51699,184.51799c-11.729,11.728 -30.793,11.728 -42.522,0c-11.727,-11.728 -11.727,-30.793 0,-42.521l184.51799,-184.51699c86.365,-86.365 226.85899,-86.365 313.16399,0c86.305,86.364 86.364,226.85799 0,313.16399l-218.67799,218.67699c-43.184,43.184 -99.899,64.773 -156.61299,64.773h0.058zM221.38601,1023.99995c-56.715,0 -113.42999,-21.592 -156.61199,-64.773c-86.364,-86.365 -86.364,-226.85699 0,-313.16399l218.67899,-218.67899c86.365,-86.365 226.85899,-86.365 313.16299,0c11.728,11.728 11.728,30.792 0,42.521c-11.728,11.727 -30.793,11.727 -42.519,0c-62.911,-62.91 -165.21399,-62.91 -228.12299,0l-218.67999,218.67899c-62.91,62.908 -62.91,165.21299 0,228.12099c62.909,62.908 165.21199,62.908 228.12199,0l184.51699,-184.51799c11.729,-11.729 30.794,-11.729 42.521,0c11.729,11.727 11.729,30.791 0,42.521l-184.51599,184.51899c-43.183,43.181 -99.898,64.773 -156.61299,64.773z"></path></g></g></svg>