<svg xmlns="http://www.w3.org/2000/svg" viewBox="0 0 64 64" id="dc-motor"><path d="M61,29H59V26a1,1,0,0,0-1-1H56V21h4V19H56V18a3.009,3.009,0,0,0-3-3H22a3.009,3.009,0,0,0-3,3v7H16a1,1,0,0,0-1,1v3H11V27a1,1,0,0,0-1-1H3a1,1,0,0,0-1,1V37a1,1,0,0,0,1,1h7a1,1,0,0,0,1-1V35h4v3a1,1,0,0,0,1,1h3v7a3.009,3.009,0,0,0,3,3H53a3.009,3.009,0,0,0,3-3V45h4V43H56V39h2a1,1,0,0,0,1-1V35h2a1,1,0,0,0,1-1V30A1,1,0,0,0,61,29ZM9,36H4V35H9Zm0-3H4V31H9Zm0-4H4V28H9Zm6,4H11V31h4Zm4,4H17V27h2Zm27,2H25V25H46Zm0-16H24a1,1,0,0,0-1,1V40a1,1,0,0,0,1,1H46v6H22a1,1,0,0,1-1-1V18a1,1,0,0,1,1-1H46Zm8,23a1,1,0,0,1-1,1H48V17h5a1,1,0,0,1,1,1Zm3-9H56V27h1Zm3-4H59V31h1Z" data-name="dc motor-electronics"></path></svg>