<svg version="1.1" xmlns="http://www.w3.org/2000/svg" xmlns:xlink="http://www.w3.org/1999/xlink" width="256px" height="256px" viewBox="0,0,256,256"><g fill="#ffffff" fill-rule="nonzero" stroke="none" stroke-width="1" stroke-linecap="butt" stroke-linejoin="miter" stroke-miterlimit="10" stroke-dasharray="" stroke-dashoffset="0" font-family="none" font-weight="none" font-size="none" text-anchor="none" style="mix-blend-mode: normal"><g transform="translate(-0.01579,0.05473)"><g><g><g><path d="M186.7,21.6c-6.7,1.1 -10.1,3.4 -20.1,13.7c-10.4,10.7 -15.2,17.5 -16.9,24.3c-0.7,2.9 -0.7,7.4 0,9.3c0.2,0.6 -0.5,1.1 -3.1,2.2c-11.1,4.6 -27.5,7.1 -48.2,7.1c-10.1,0 -9.7,0.1 -24.4,-3c-4.5,-1 -6.9,-1.2 -12.4,-1.2h-6.8l-2.4,-4.8c-3.1,-6.2 -6.6,-12 -9.2,-15c-6.3,-7.6 -19.5,-14.8 -25.2,-13.9c-5,0.8 -8,4.3 -8,9.3c0,4.2 1.3,6.4 8.4,13.5c7.6,7.7 10.2,12.1 11.3,19.5c0.5,2.8 0.4,3.2 -1.2,7.9c-3.1,9.3 -4.4,17 -4.4,26.6c0,12.1 1.7,20.1 6.1,29.2c4.4,8.9 4.2,12.4 -0.7,18.9c-4.2,5.5 -5.4,9.4 -5.4,17.4c0,8 2.5,22.1 5.6,31.5c4.9,15 9.5,19.6 20.7,20.6c6.5,0.7 11.6,-1.5 14.1,-6c1.2,-1.9 1.4,-2.9 1.4,-5.4c0,-4.2 -1.1,-6.2 -5.5,-10.5c-5.9,-5.8 -8,-11.6 -8.7,-24.3c-0.4,-7.8 0.1,-8.9 5.8,-13.5c2.2,-1.8 4.1,-3.2 4.3,-3.2c0.2,0 0.5,1.2 0.6,2.6c2.2,18.6 7.5,35 13.1,40.6c3.6,3.7 8.8,5.5 15.5,5.5c7.5,0 13,-4.8 13,-11.4c0,-3.9 -1.3,-6.3 -5.8,-10.9c-2.1,-2.2 -4.3,-4.8 -4.9,-5.9c-2.9,-5.7 -4.7,-21.9 -3.2,-29c0.3,-1.3 1.9,-6.9 3.7,-12.3c1.8,-5.4 3.2,-10.2 3.2,-10.6c0,-1 0.1,-0.9 4.8,1.3c5.8,2.8 9.7,4.3 14.8,5.6c5.2,1.3 12.8,2.6 16.4,2.6c1.8,0 2.6,0.2 2.8,0.7c0.1,0.4 -0.2,5.6 -0.7,11.5c-1.4,15.2 -1.7,32.3 -0.7,39.6c1.9,13.8 5.8,23.5 11.8,29c3.8,3.6 6.2,4.3 12.9,4c4.5,-0.2 4.9,-0.3 6.5,-1.6c2.3,-1.9 3.3,-3.7 3.7,-6.6c0.4,-3.2 -1.4,-7 -4.3,-9c-3.2,-2.2 -4.1,-6.1 -4.8,-20.3c-0.6,-10.8 0.2,-19.1 2.7,-29.1c1.5,-6.1 1.7,-6.3 2.3,-3.1c4.9,24.4 8.3,36.6 12,44c3.8,7.5 8.3,10.9 14.6,11.4c3.9,0.3 6.7,-0.5 8.9,-2.3c2.6,-2.1 3.7,-4.6 3.4,-7.9c-0.2,-3 -1.7,-5.3 -4.7,-7.3c-3.3,-2.2 -4.2,-6.1 -7,-33.1c-3.2,-29.7 -4.1,-45.8 -3.1,-53.3c0.3,-2.2 0.7,-8.2 1,-13.3c0.6,-12.8 1.8,-17.1 6.2,-21.8c3.8,-4.1 5.3,-4.2 12.5,-1.2l5.2,2.2h5.6c5.5,0 5.6,0 8.2,-1.5c1.5,-0.8 2.8,-1.7 2.9,-1.9c0.1,-0.3 1.7,-1.3 3.4,-2.3c1.7,-1 3.9,-2.7 4.9,-3.8c2,-2.2 4.3,-6.7 4.7,-9.4c0.2,-1 0.7,-2.7 1.2,-3.8c1.6,-3.4 1.1,-7.3 -1.2,-8.8c-0.6,-0.4 -2.8,-1.1 -4.7,-1.4c-1.9,-0.4 -6.4,-1.4 -9.8,-2.4c-7.4,-2 -8.4,-2.8 -12.2,-8.6c-5.8,-9 -9.1,-12.6 -14.6,-15.2c-4.8,-2.2 -9.9,-2.8 -15.9,-1.7zM199.1,32.2c2.7,1.4 4.9,3.8 9,10c4.2,6.4 7.1,9.6 9.7,11.1c1.7,1 14.8,4.9 16.3,4.9c0.4,0 0.6,0.6 0.6,1.6c0,3.5 -2.1,7.1 -5.2,8.7c-1.1,0.6 -2.9,1.8 -4.2,2.7c-2.4,1.9 -5.2,2.6 -7.9,2.1c-0.8,-0.2 -3.5,-1.2 -5.9,-2.1c-8.6,-3.6 -13.4,-3.3 -19.3,1.1c-4.4,3.4 -8.7,10.3 -10.2,16.6c-0.4,1.7 -0.9,7.1 -1.2,12.3c-1.3,25 -4.8,34.8 -15.6,42.7c-5,3.7 -6.6,6.2 -9.6,14.9c-4.8,13.8 -6.4,29.7 -4.7,46.2c1.2,10.9 2.8,16 6,18.8l1.7,1.5h-2.5c-2.2,0 -2.6,-0.1 -4.1,-1.8c-4.6,-4.9 -7.7,-14.3 -8.8,-27.3c-0.6,-7.1 -0.3,-15.2 1.2,-33.3c0.6,-7.4 1.2,-15.3 1.3,-17.5l0.2,-4l-2.4,-0.2c-1.3,-0.1 -5.1,-0.3 -8.4,-0.5c-12.2,-0.5 -19.2,-2.4 -33.2,-9.1c-10.4,-5 -12.7,-5.8 -18.9,-6.2c-4.9,-0.4 -4.5,-0.8 -5,5.1c-0.5,5.5 -1.6,10.1 -3.5,14c-3.2,7 -7.4,11.4 -18.3,19.6c-7.7,5.7 -10.6,8.6 -12.5,12.1c-1.3,2.4 -1.4,3 -1.5,8.1c-0.4,10.5 1.5,20.9 4.9,27.4c1.2,2.2 2.9,4.5 5.5,7.1c2.1,2.1 3.9,4.1 3.9,4.5c0,1.4 -1.4,2.1 -4.5,2.1c-3.4,0 -6.1,-0.8 -7.6,-2.2c-4.7,-4.3 -10.6,-26.3 -10.8,-40c0,-6.7 0.3,-7.7 4.5,-13.5c3.5,-4.9 4.7,-8.5 4.6,-14.3v-4.4l-3.2,-7c-1.8,-3.8 -3.6,-8.1 -4,-9.5c-3.3,-11.9 -2.4,-29.4 2.1,-41.1c1.3,-3.3 1.4,-4.2 1.4,-8.6c0,-5.4 -0.7,-8.3 -3.2,-13.7c-2.5,-5.4 -4.5,-8.2 -10.6,-14.2c-3.2,-3.2 -5.8,-6 -5.8,-6.3c0,-1.3 6.4,1.6 11.2,5.1c5.8,4.3 9.1,9.1 14.8,21.3l3.2,6.8h10.1c9.9,0 10.2,0 17.4,1.7c11,2.6 13.9,2.9 26.4,2.5c22.6,-0.6 38,-3.3 49.9,-8.8l3.5,-1.6l1.7,1.2c5.1,3.4 11.8,3.1 17.7,-0.8c8.3,-5.6 14.6,-18.7 14.7,-30.4c0,-3.9 0,-4.4 -1.1,-5.4c-1.5,-1.6 -3.3,-1.9 -5.4,-0.9c-2.1,1 -2.4,1.7 -3,7.3c-0.9,8 -3.9,15 -8.1,19.3c-4.6,4.7 -8.6,4.9 -12.3,0.7c-1.2,-1.4 -1.4,-2 -1.4,-4.1c0,-5.2 4.3,-11.6 15.5,-22.9c8.6,-8.7 10.2,-9.8 15.1,-10.3c3.4,-0.8 7.5,-0.3 9.8,0.9zM88.2,136.6c0,0.5 -1.5,5.7 -3.4,11.5c-1.9,5.8 -3.7,12 -4,13.8c-0.8,4.7 -0.3,19.2 0.9,24.6c1.9,8.5 3.8,12.3 9.5,18.2c2,2.1 3.6,4.1 3.6,4.5c0,1.3 -1.3,1.9 -4.5,1.8c-6.4,-0.1 -8.1,-1.3 -10.9,-7.2c-3.6,-7.8 -7.1,-23.3 -7.7,-34.2l-0.3,-5l3.3,-3.5c6,-6.4 9.7,-13.1 11.8,-21.6c0.8,-3.8 1.7,-5.2 1.7,-2.9zM182.8,170.2c1,9.7 2.2,19.8 2.6,22.5c1.3,8.8 3.5,14.2 6.9,17c1,0.9 1.5,1.6 1.2,1.6c-1.8,0 -4.2,-1.1 -5.3,-2.5c-1.9,-2.2 -5,-9.1 -6.6,-14.6c-1.2,-4.1 -4.9,-20.7 -8.4,-38l-1.1,-5.2l4.1,-3.9l4.2,-4l0.3,4.7c0.1,2.7 1.1,12.7 2.1,22.4z"></path></g></g></g></g></g></svg>