<?xml version="1.0" encoding="utf-8"?>
<!-- Svg Vector Icons : http://www.onlinewebfonts.com/icon -->
<!DOCTYPE svg PUBLIC "-//W3C//DTD SVG 1.1//EN" "http://www.w3.org/Graphics/SVG/1.1/DTD/svg11.dtd">
<svg version="1.1" xmlns="http://www.w3.org/2000/svg" xmlns:xlink="http://www.w3.org/1999/xlink" x="0px" y="0px" viewBox="0 0 256 256" enable-background="new 0 0 256 256" xml:space="preserve">
<metadata> Svg Vector Icons : http://www.onlinewebfonts.com/icon </metadata>
<g><g><path fill="#000000" d="M64.3,100.9c-5.6,0-10.2,4.6-10.2,10.2c0,5.7,4.6,10.2,10.2,10.2c5.6,0,10.2-4.6,10.2-10.2S69.9,100.9,64.3,100.9z"/><path fill="#000000" d="M238.8,124.2c-11.1-46.6-23-71.4-46.6-78.4c-5.2-1.5-9.5-2.1-13.6-2.1c-14.5,0-24.7,7.7-50.6,7.7c-25.9,0-36.1-7.7-50.6-7.7c-4,0-8.4,0.6-13.6,2.1c-23.6,7-35.5,31.8-46.6,78.4c-11.2,46.6-9.1,80.3,4,86.6c2.1,1,4.3,1.5,6.6,1.5c11.4,0,23.8-12.5,35.6-27.4c13.5-16.9,16.9-17.4,58.1-17.4h12.8c41.2,0,44.6,0.5,58.1,17.4c11.9,14.9,24.2,27.4,35.6,27.4c2.2,0,4.4-0.5,6.6-1.5C247.9,204.5,249.9,170.8,238.8,124.2z M64.4,132c-11.4,0-20.7-9.3-20.7-20.9c0-11.5,9.3-20.9,20.7-20.9c11.4,0,20.7,9.4,20.7,20.9C85.1,122.7,75.8,132,64.4,132z M155.4,121.8c-5.8,0-10.6-4.7-10.6-10.6c0-5.9,4.7-10.6,10.6-10.6c5.9,0,10.6,4.7,10.6,10.6C166.1,117,161.3,121.8,155.4,121.8z M178.6,144.9c-5.8,0-10.6-4.7-10.6-10.5c0-5.9,4.7-10.6,10.6-10.6c5.9,0,10.6,4.7,10.6,10.6C189.2,140.1,184.5,144.9,178.6,144.9z M178.6,98.6c-5.8,0-10.6-4.7-10.6-10.6c0-5.9,4.7-10.6,10.6-10.6c5.9,0,10.6,4.7,10.6,10.6C189.2,93.9,184.5,98.6,178.6,98.6z M201.7,121.8c-5.9,0-10.6-4.7-10.6-10.6c0-5.9,4.7-10.6,10.6-10.6c5.8,0,10.6,4.7,10.6,10.6C212.3,117,207.5,121.8,201.7,121.8z"/></g></g>
</svg>