<svg version="1.1" xmlns="http://www.w3.org/2000/svg" xmlns:xlink="http://www.w3.org/1999/xlink" width="256px" height="256px" viewBox="0,0,256,256"><g fill="#ffffff" fill-rule="nonzero" stroke="none" stroke-width="1" stroke-linecap="butt" stroke-linejoin="miter" stroke-miterlimit="10" stroke-dasharray="" stroke-dashoffset="0" font-family="none" font-weight="none" font-size="none" text-anchor="none" style="mix-blend-mode: normal"><g transform="translate(-0.05,-0.05)"><g><g><path d="M128,10c-23,0 -41.6,19.7 -41.6,44v81.4c0,24.2 18.6,44 41.6,44c23,0 41.6,-19.7 41.6,-44v-81.4c0,-24.3 -18.6,-44 -41.6,-44zM161.2,135.4c0,19.6 -14.9,35.6 -33.2,35.6c-18.3,0 -33.2,-16 -33.2,-35.6v-81.4c0,-19.6 14.9,-35.5 33.2,-35.5c18.3,0 33.2,16 33.2,35.6z"></path><path d="M186.5,94.3v42c0,31.7 -26.2,57.5 -57.9,57.5c-31.7,0 -57.9,-25.8 -57.9,-57.5v-42h-10v42c0,35.4 27.9,64.6 63.2,67.2v33.1h-38.6v9.5h84.8v-9.5h-36.3v-33.1c34.8,-2.6 61.6,-31.8 61.6,-67.2v-42z"></path></g></g></g></g></svg>