<svg version="1.1" xmlns="http://www.w3.org/2000/svg" xmlns:xlink="http://www.w3.org/1999/xlink" width="256px" height="256px" viewBox="0,0,256,256"><g fill="#ffffff" fill-rule="nonzero" stroke="none" stroke-width="1" stroke-linecap="butt" stroke-linejoin="miter" stroke-miterlimit="10" stroke-dasharray="" stroke-dashoffset="0" font-family="none" font-weight="none" font-size="none" text-anchor="none" style="mix-blend-mode: normal"><g transform="translate(0.09881,0.00825)"><g><g><path d="M179.3,79.3c-0.9,-2.4 -2.7,-4.3 -5,-5.4c-1.9,-1.1 -4.1,-1.5 -6.4,-1.2c-5.4,0.8 -9.1,6 -8.3,11.5c0.5,3.1 2.3,5.7 4.8,7.1c9.6,10.2 15.5,24 15.5,39.1c0,16.6 -7.1,31.5 -18.3,41.9c-2.1,1.8 -3.4,4.5 -3.4,7.4c0,5.4 4.4,9.8 9.8,9.8c2.8,0 5.3,-1.2 7.1,-3c1.9,-1.1 3.4,-2.8 4.2,-4.9c12.3,-13.6 19.8,-31.5 19.8,-51.2c0,-19.6 -7.5,-37.5 -19.8,-51.1zM213.6,43.6c-1.6,-3.3 -5,-5.6 -9,-5.6c-5.5,0 -10,4.5 -10,10c0,3.6 1.9,6.8 4.8,8.5c17,17.7 27.4,41.7 27.4,68.2c0,29.6 -13.1,56.2 -33.8,74.3v0c-3.3,1.6 -5.5,5 -5.5,8.8c0,5.4 4.4,9.8 9.8,9.8c3.2,0 6.1,-1.6 7.9,-4c0.1,-0.1 0.2,-0.2 0.3,-0.3v0c24.6,-21.6 40.3,-53.3 40.3,-88.7c0.2,-31.3 -12.2,-59.8 -32.2,-81zM108.3,26.6l-49.2,50.3h-30c-12.8,0 -19.1,7 -19.1,19.2v63.8c0,12 6.5,19.1 19.1,19.1h30l49.2,50.3c14.1,13.3 35.6,7.4 35.6,-14.6v-173.5c0,-22.2 -21.7,-27.6 -35.6,-14.6zM124.8,204.9c0,14.5 -6.4,6.4 -13,-0.1c-11.5,-11.3 -28.9,-29.6 -43.1,-44.9h-26.8c-9.7,0 -12.8,-3.3 -12.8,-12.8v-38.3c0,-9.3 3.3,-12.8 12.8,-12.8h27.1c14.2,-15.3 31.4,-33.6 42.9,-44.9c6.5,-6.4 13,-14.7 13,0.4c-0.1,31.3 -0.1,122.9 -0.1,153.4z"></path></g></g></g></g></svg>